<svg width="120" height="40" viewBox="0 0 120 40" fill="none" xmlns="http://www.w3.org/2000/svg">
<rect width="120" height="40" fill="white"/>
<rect width="30" height="30" transform="translate(5 5)" fill="white"/>
<circle cx="20" cy="20" r="13.125" fill="#FDEACF"/>
<circle cx="20" cy="20" r="11.8125" fill="black" stroke="#D9E3E9" stroke-width="0.875"/>
<circle cx="20" cy="20" r="10.5" stroke="#E8E3E1" stroke-width="0.2625" stroke-linecap="round" stroke-linejoin="round" stroke-dasharray="1.75 1.75"/>
<mask id="path-4-outside-1_82_35780" maskUnits="userSpaceOnUse" x="12.875" y="14.625" width="14" height="11" fill="black">
<rect fill="white" x="12.875" y="14.625" width="14" height="11"/>
<path d="M14.8812 24.375C14.5206 24.375 14.2607 24.3069 14.1014 24.1706C13.9505 24.0429 13.875 23.8726 13.875 23.6597C13.875 23.4894 13.9169 23.2977 14.0008 23.0849C14.0846 22.872 14.1936 22.6505 14.3278 22.4206C14.6212 21.9097 14.9524 21.3774 15.3214 20.8239C15.6987 20.2619 16.0676 19.7083 16.4281 19.1633C16.621 18.8653 16.8222 18.563 17.0318 18.2564C17.2498 17.9413 17.4511 17.639 17.6355 17.3495C17.8284 17.0514 17.9793 16.7832 18.0883 16.5447C18.0044 16.5362 17.9206 16.5319 17.8368 16.5319C17.7529 16.5319 17.6649 16.5319 17.5726 16.5319C17.2121 16.5319 16.839 16.5617 16.4533 16.6214C16.0676 16.6724 15.707 16.7576 15.3717 16.8768C15.0447 16.996 14.7805 17.1536 14.5793 17.3495C14.3781 17.5368 14.2775 17.7667 14.2775 18.0392C14.2775 18.2095 14.3236 18.3458 14.4158 18.448C14.5164 18.5502 14.6254 18.6311 14.7428 18.6907C14.8686 18.7503 14.9608 18.8014 15.0195 18.844C15.0866 18.8866 15.1201 18.9206 15.1201 18.9462C15.1201 18.9632 15.1034 18.9717 15.0698 18.9717C15.0027 18.9717 14.8812 18.9291 14.7051 18.844C14.5374 18.7503 14.3823 18.6226 14.2397 18.4608C14.0972 18.299 14.0217 18.1116 14.0133 17.8987C14.0133 17.8817 14.005 17.8561 13.9882 17.8221C13.9714 17.788 13.963 17.7582 13.963 17.7327C13.9463 17.4091 14.0259 17.1366 14.202 16.9151C14.3781 16.6937 14.617 16.5149 14.9189 16.3786C15.2291 16.2339 15.5729 16.1317 15.9502 16.0721C16.3275 16.004 16.7048 15.9699 17.0821 15.9699C17.5014 15.9699 17.8996 16.004 18.277 16.0721C18.2853 16.038 18.2895 16.0082 18.2895 15.9827C18.2979 15.9571 18.3021 15.9316 18.3021 15.906C18.3021 15.8634 18.2937 15.8251 18.277 15.7911C18.2686 15.774 18.2644 15.7527 18.2644 15.7272C18.2644 15.6591 18.3021 15.625 18.3776 15.625C18.4195 15.625 18.4614 15.642 18.5033 15.6761C18.5536 15.7016 18.5914 15.7527 18.6165 15.8294C18.6249 15.8464 18.6291 15.8762 18.6291 15.9188C18.6291 15.9869 18.6165 16.0593 18.5914 16.1359C18.692 16.17 18.78 16.2041 18.8555 16.2381C18.9393 16.2722 19.019 16.3063 19.0945 16.3403C19.1615 16.3659 19.237 16.4212 19.3208 16.5064C19.4047 16.583 19.4466 16.6469 19.4466 16.698C19.4466 16.7406 19.4131 16.7619 19.346 16.7619C19.3125 16.7619 19.2705 16.7576 19.2202 16.7491C19.1699 16.7406 19.1112 16.7235 19.0441 16.698C18.9603 16.6724 18.8723 16.6512 18.78 16.6341C18.6878 16.6086 18.5914 16.5873 18.4908 16.5703C18.3566 16.9364 18.1554 17.3707 17.8871 17.8732C17.6188 18.3671 17.3295 18.8482 17.0193 19.3166C16.7426 19.7424 16.4617 20.1767 16.1766 20.6195C15.8999 21.0623 15.6442 21.4967 15.4094 21.9224C15.183 22.3482 15.0027 22.7527 14.8686 23.1359C14.835 23.2467 14.8099 23.3446 14.7931 23.4297C14.7764 23.5234 14.768 23.6043 14.768 23.6724C14.768 23.945 14.8979 24.0812 15.1579 24.0812C15.3842 24.0812 15.6819 23.9918 16.0508 23.813C16.4197 23.6341 16.7971 23.4127 17.1828 23.1487C17.8787 22.6548 18.5369 22.097 19.1573 21.4754C19.7862 20.8537 20.3438 20.1937 20.8301 19.4954C20.8217 19.3932 20.8133 19.2868 20.8049 19.1761C20.8049 19.0569 20.8049 18.9334 20.8049 18.8057C20.8049 18.6013 20.8091 18.3926 20.8175 18.1797C20.8343 17.9668 20.8594 17.7795 20.893 17.6177C20.9014 17.5496 20.9391 17.4602 21.0062 17.3495C21.0816 17.2302 21.1655 17.1238 21.2577 17.0301C21.3583 16.9364 21.4464 16.8896 21.5218 16.8896C21.5973 16.8896 21.656 16.9407 21.6979 17.0429C21.7482 17.1451 21.7734 17.3239 21.7734 17.5794C21.7734 17.8263 21.7482 18.1159 21.6979 18.448C21.656 18.7716 21.5595 19.0909 21.4086 19.406C21.4002 19.8999 21.4464 20.3811 21.547 20.8495C21.656 21.3093 21.8069 21.7223 21.9997 22.0885C22.201 22.4547 22.4274 22.7442 22.6789 22.9571C22.9304 23.1615 23.1988 23.2594 23.4838 23.2509C23.8024 23.2424 24.0875 23.1274 24.3391 22.906C24.599 22.6761 24.8212 22.3738 25.0056 21.9991C25.1985 21.6159 25.3452 21.1986 25.4458 20.7473C25.5465 20.2959 25.5968 19.8446 25.5968 19.3932C25.5968 18.9419 25.5381 18.5161 25.4207 18.1159C25.3117 17.7071 25.1356 17.3707 24.8925 17.1068C24.6241 16.8172 24.2804 16.6724 23.8611 16.6724C23.8276 16.6724 23.7899 16.6724 23.7479 16.6724C23.7144 16.6724 23.6767 16.6767 23.6348 16.6852C23.4251 16.7108 23.2407 16.7874 23.0814 16.9151C23.0478 16.9322 23.0185 16.9407 22.9933 16.9407C22.8927 16.9407 22.8424 16.8981 22.8424 16.813C22.8424 16.7789 22.8592 16.7491 22.8927 16.7235C23.3539 16.3999 23.8066 16.2381 24.251 16.2381C24.578 16.2381 24.8757 16.3276 25.144 16.5064C25.4878 16.7278 25.7351 17.0557 25.886 17.49C26.0453 17.9243 26.125 18.4012 26.125 18.9206C26.125 19.4571 26.0495 20.0106 25.8986 20.5812C25.7477 21.1432 25.5381 21.6627 25.2698 22.1396C25.0015 22.6165 24.6828 23.004 24.3139 23.302C23.945 23.5915 23.5467 23.7363 23.1191 23.7363C22.7921 23.7363 22.4777 23.6426 22.1758 23.4553C21.8824 23.2765 21.6266 23.021 21.4086 22.6889C21.1906 22.3568 21.0229 21.9735 20.9055 21.5392C20.7965 21.1049 20.7588 20.6408 20.7924 20.1469C20.524 20.4875 20.2012 20.8537 19.8239 21.2454C19.455 21.6286 19.0651 22.0033 18.6543 22.3695C18.2518 22.7272 17.8661 23.0423 17.4972 23.3148C17.0696 23.6214 16.6377 23.8726 16.2017 24.0684C15.7741 24.2728 15.3339 24.375 14.8812 24.375Z"/>
</mask>
<path d="M14.8812 24.375C14.5206 24.375 14.2607 24.3069 14.1014 24.1706C13.9505 24.0429 13.875 23.8726 13.875 23.6597C13.875 23.4894 13.9169 23.2977 14.0008 23.0849C14.0846 22.872 14.1936 22.6505 14.3278 22.4206C14.6212 21.9097 14.9524 21.3774 15.3214 20.8239C15.6987 20.2619 16.0676 19.7083 16.4281 19.1633C16.621 18.8653 16.8222 18.563 17.0318 18.2564C17.2498 17.9413 17.4511 17.639 17.6355 17.3495C17.8284 17.0514 17.9793 16.7832 18.0883 16.5447C18.0044 16.5362 17.9206 16.5319 17.8368 16.5319C17.7529 16.5319 17.6649 16.5319 17.5726 16.5319C17.2121 16.5319 16.839 16.5617 16.4533 16.6214C16.0676 16.6724 15.707 16.7576 15.3717 16.8768C15.0447 16.996 14.7805 17.1536 14.5793 17.3495C14.3781 17.5368 14.2775 17.7667 14.2775 18.0392C14.2775 18.2095 14.3236 18.3458 14.4158 18.448C14.5164 18.5502 14.6254 18.6311 14.7428 18.6907C14.8686 18.7503 14.9608 18.8014 15.0195 18.844C15.0866 18.8866 15.1201 18.9206 15.1201 18.9462C15.1201 18.9632 15.1034 18.9717 15.0698 18.9717C15.0027 18.9717 14.8812 18.9291 14.7051 18.844C14.5374 18.7503 14.3823 18.6226 14.2397 18.4608C14.0972 18.299 14.0217 18.1116 14.0133 17.8987C14.0133 17.8817 14.005 17.8561 13.9882 17.8221C13.9714 17.788 13.963 17.7582 13.963 17.7327C13.9463 17.4091 14.0259 17.1366 14.202 16.9151C14.3781 16.6937 14.617 16.5149 14.9189 16.3786C15.2291 16.2339 15.5729 16.1317 15.9502 16.0721C16.3275 16.004 16.7048 15.9699 17.0821 15.9699C17.5014 15.9699 17.8996 16.004 18.277 16.0721C18.2853 16.038 18.2895 16.0082 18.2895 15.9827C18.2979 15.9571 18.3021 15.9316 18.3021 15.906C18.3021 15.8634 18.2937 15.8251 18.277 15.7911C18.2686 15.774 18.2644 15.7527 18.2644 15.7272C18.2644 15.6591 18.3021 15.625 18.3776 15.625C18.4195 15.625 18.4614 15.642 18.5033 15.6761C18.5536 15.7016 18.5914 15.7527 18.6165 15.8294C18.6249 15.8464 18.6291 15.8762 18.6291 15.9188C18.6291 15.9869 18.6165 16.0593 18.5914 16.1359C18.692 16.17 18.78 16.2041 18.8555 16.2381C18.9393 16.2722 19.019 16.3063 19.0945 16.3403C19.1615 16.3659 19.237 16.4212 19.3208 16.5064C19.4047 16.583 19.4466 16.6469 19.4466 16.698C19.4466 16.7406 19.4131 16.7619 19.346 16.7619C19.3125 16.7619 19.2705 16.7576 19.2202 16.7491C19.1699 16.7406 19.1112 16.7235 19.0441 16.698C18.9603 16.6724 18.8723 16.6512 18.78 16.6341C18.6878 16.6086 18.5914 16.5873 18.4908 16.5703C18.3566 16.9364 18.1554 17.3707 17.8871 17.8732C17.6188 18.3671 17.3295 18.8482 17.0193 19.3166C16.7426 19.7424 16.4617 20.1767 16.1766 20.6195C15.8999 21.0623 15.6442 21.4967 15.4094 21.9224C15.183 22.3482 15.0027 22.7527 14.8686 23.1359C14.835 23.2467 14.8099 23.3446 14.7931 23.4297C14.7764 23.5234 14.768 23.6043 14.768 23.6724C14.768 23.945 14.8979 24.0812 15.1579 24.0812C15.3842 24.0812 15.6819 23.9918 16.0508 23.813C16.4197 23.6341 16.7971 23.4127 17.1828 23.1487C17.8787 22.6548 18.5369 22.097 19.1573 21.4754C19.7862 20.8537 20.3438 20.1937 20.8301 19.4954C20.8217 19.3932 20.8133 19.2868 20.8049 19.1761C20.8049 19.0569 20.8049 18.9334 20.8049 18.8057C20.8049 18.6013 20.8091 18.3926 20.8175 18.1797C20.8343 17.9668 20.8594 17.7795 20.893 17.6177C20.9014 17.5496 20.9391 17.4602 21.0062 17.3495C21.0816 17.2302 21.1655 17.1238 21.2577 17.0301C21.3583 16.9364 21.4464 16.8896 21.5218 16.8896C21.5973 16.8896 21.656 16.9407 21.6979 17.0429C21.7482 17.1451 21.7734 17.3239 21.7734 17.5794C21.7734 17.8263 21.7482 18.1159 21.6979 18.448C21.656 18.7716 21.5595 19.0909 21.4086 19.406C21.4002 19.8999 21.4464 20.3811 21.547 20.8495C21.656 21.3093 21.8069 21.7223 21.9997 22.0885C22.201 22.4547 22.4274 22.7442 22.6789 22.9571C22.9304 23.1615 23.1988 23.2594 23.4838 23.2509C23.8024 23.2424 24.0875 23.1274 24.3391 22.906C24.599 22.6761 24.8212 22.3738 25.0056 21.9991C25.1985 21.6159 25.3452 21.1986 25.4458 20.7473C25.5465 20.2959 25.5968 19.8446 25.5968 19.3932C25.5968 18.9419 25.5381 18.5161 25.4207 18.1159C25.3117 17.7071 25.1356 17.3707 24.8925 17.1068C24.6241 16.8172 24.2804 16.6724 23.8611 16.6724C23.8276 16.6724 23.7899 16.6724 23.7479 16.6724C23.7144 16.6724 23.6767 16.6767 23.6348 16.6852C23.4251 16.7108 23.2407 16.7874 23.0814 16.9151C23.0478 16.9322 23.0185 16.9407 22.9933 16.9407C22.8927 16.9407 22.8424 16.8981 22.8424 16.813C22.8424 16.7789 22.8592 16.7491 22.8927 16.7235C23.3539 16.3999 23.8066 16.2381 24.251 16.2381C24.578 16.2381 24.8757 16.3276 25.144 16.5064C25.4878 16.7278 25.7351 17.0557 25.886 17.49C26.0453 17.9243 26.125 18.4012 26.125 18.9206C26.125 19.4571 26.0495 20.0106 25.8986 20.5812C25.7477 21.1432 25.5381 21.6627 25.2698 22.1396C25.0015 22.6165 24.6828 23.004 24.3139 23.302C23.945 23.5915 23.5467 23.7363 23.1191 23.7363C22.7921 23.7363 22.4777 23.6426 22.1758 23.4553C21.8824 23.2765 21.6266 23.021 21.4086 22.6889C21.1906 22.3568 21.0229 21.9735 20.9055 21.5392C20.7965 21.1049 20.7588 20.6408 20.7924 20.1469C20.524 20.4875 20.2012 20.8537 19.8239 21.2454C19.455 21.6286 19.0651 22.0033 18.6543 22.3695C18.2518 22.7272 17.8661 23.0423 17.4972 23.3148C17.0696 23.6214 16.6377 23.8726 16.2017 24.0684C15.7741 24.2728 15.3339 24.375 14.8812 24.375Z" fill="white"/>
<path d="M14.8812 24.375C14.5206 24.375 14.2607 24.3069 14.1014 24.1706C13.9505 24.0429 13.875 23.8726 13.875 23.6597C13.875 23.4894 13.9169 23.2977 14.0008 23.0849C14.0846 22.872 14.1936 22.6505 14.3278 22.4206C14.6212 21.9097 14.9524 21.3774 15.3214 20.8239C15.6987 20.2619 16.0676 19.7083 16.4281 19.1633C16.621 18.8653 16.8222 18.563 17.0318 18.2564C17.2498 17.9413 17.4511 17.639 17.6355 17.3495C17.8284 17.0514 17.9793 16.7832 18.0883 16.5447C18.0044 16.5362 17.9206 16.5319 17.8368 16.5319C17.7529 16.5319 17.6649 16.5319 17.5726 16.5319C17.2121 16.5319 16.839 16.5617 16.4533 16.6214C16.0676 16.6724 15.707 16.7576 15.3717 16.8768C15.0447 16.996 14.7805 17.1536 14.5793 17.3495C14.3781 17.5368 14.2775 17.7667 14.2775 18.0392C14.2775 18.2095 14.3236 18.3458 14.4158 18.448C14.5164 18.5502 14.6254 18.6311 14.7428 18.6907C14.8686 18.7503 14.9608 18.8014 15.0195 18.844C15.0866 18.8866 15.1201 18.9206 15.1201 18.9462C15.1201 18.9632 15.1034 18.9717 15.0698 18.9717C15.0027 18.9717 14.8812 18.9291 14.7051 18.844C14.5374 18.7503 14.3823 18.6226 14.2397 18.4608C14.0972 18.299 14.0217 18.1116 14.0133 17.8987C14.0133 17.8817 14.005 17.8561 13.9882 17.8221C13.9714 17.788 13.963 17.7582 13.963 17.7327C13.9463 17.4091 14.0259 17.1366 14.202 16.9151C14.3781 16.6937 14.617 16.5149 14.9189 16.3786C15.2291 16.2339 15.5729 16.1317 15.9502 16.0721C16.3275 16.004 16.7048 15.9699 17.0821 15.9699C17.5014 15.9699 17.8996 16.004 18.277 16.0721C18.2853 16.038 18.2895 16.0082 18.2895 15.9827C18.2979 15.9571 18.3021 15.9316 18.3021 15.906C18.3021 15.8634 18.2937 15.8251 18.277 15.7911C18.2686 15.774 18.2644 15.7527 18.2644 15.7272C18.2644 15.6591 18.3021 15.625 18.3776 15.625C18.4195 15.625 18.4614 15.642 18.5033 15.6761C18.5536 15.7016 18.5914 15.7527 18.6165 15.8294C18.6249 15.8464 18.6291 15.8762 18.6291 15.9188C18.6291 15.9869 18.6165 16.0593 18.5914 16.1359C18.692 16.17 18.78 16.2041 18.8555 16.2381C18.9393 16.2722 19.019 16.3063 19.0945 16.3403C19.1615 16.3659 19.237 16.4212 19.3208 16.5064C19.4047 16.583 19.4466 16.6469 19.4466 16.698C19.4466 16.7406 19.4131 16.7619 19.346 16.7619C19.3125 16.7619 19.2705 16.7576 19.2202 16.7491C19.1699 16.7406 19.1112 16.7235 19.0441 16.698C18.9603 16.6724 18.8723 16.6512 18.78 16.6341C18.6878 16.6086 18.5914 16.5873 18.4908 16.5703C18.3566 16.9364 18.1554 17.3707 17.8871 17.8732C17.6188 18.3671 17.3295 18.8482 17.0193 19.3166C16.7426 19.7424 16.4617 20.1767 16.1766 20.6195C15.8999 21.0623 15.6442 21.4967 15.4094 21.9224C15.183 22.3482 15.0027 22.7527 14.8686 23.1359C14.835 23.2467 14.8099 23.3446 14.7931 23.4297C14.7764 23.5234 14.768 23.6043 14.768 23.6724C14.768 23.945 14.8979 24.0812 15.1579 24.0812C15.3842 24.0812 15.6819 23.9918 16.0508 23.813C16.4197 23.6341 16.7971 23.4127 17.1828 23.1487C17.8787 22.6548 18.5369 22.097 19.1573 21.4754C19.7862 20.8537 20.3438 20.1937 20.8301 19.4954C20.8217 19.3932 20.8133 19.2868 20.8049 19.1761C20.8049 19.0569 20.8049 18.9334 20.8049 18.8057C20.8049 18.6013 20.8091 18.3926 20.8175 18.1797C20.8343 17.9668 20.8594 17.7795 20.893 17.6177C20.9014 17.5496 20.9391 17.4602 21.0062 17.3495C21.0816 17.2302 21.1655 17.1238 21.2577 17.0301C21.3583 16.9364 21.4464 16.8896 21.5218 16.8896C21.5973 16.8896 21.656 16.9407 21.6979 17.0429C21.7482 17.1451 21.7734 17.3239 21.7734 17.5794C21.7734 17.8263 21.7482 18.1159 21.6979 18.448C21.656 18.7716 21.5595 19.0909 21.4086 19.406C21.4002 19.8999 21.4464 20.3811 21.547 20.8495C21.656 21.3093 21.8069 21.7223 21.9997 22.0885C22.201 22.4547 22.4274 22.7442 22.6789 22.9571C22.9304 23.1615 23.1988 23.2594 23.4838 23.2509C23.8024 23.2424 24.0875 23.1274 24.3391 22.906C24.599 22.6761 24.8212 22.3738 25.0056 21.9991C25.1985 21.6159 25.3452 21.1986 25.4458 20.7473C25.5465 20.2959 25.5968 19.8446 25.5968 19.3932C25.5968 18.9419 25.5381 18.5161 25.4207 18.1159C25.3117 17.7071 25.1356 17.3707 24.8925 17.1068C24.6241 16.8172 24.2804 16.6724 23.8611 16.6724C23.8276 16.6724 23.7899 16.6724 23.7479 16.6724C23.7144 16.6724 23.6767 16.6767 23.6348 16.6852C23.4251 16.7108 23.2407 16.7874 23.0814 16.9151C23.0478 16.9322 23.0185 16.9407 22.9933 16.9407C22.8927 16.9407 22.8424 16.8981 22.8424 16.813C22.8424 16.7789 22.8592 16.7491 22.8927 16.7235C23.3539 16.3999 23.8066 16.2381 24.251 16.2381C24.578 16.2381 24.8757 16.3276 25.144 16.5064C25.4878 16.7278 25.7351 17.0557 25.886 17.49C26.0453 17.9243 26.125 18.4012 26.125 18.9206C26.125 19.4571 26.0495 20.0106 25.8986 20.5812C25.7477 21.1432 25.5381 21.6627 25.2698 22.1396C25.0015 22.6165 24.6828 23.004 24.3139 23.302C23.945 23.5915 23.5467 23.7363 23.1191 23.7363C22.7921 23.7363 22.4777 23.6426 22.1758 23.4553C21.8824 23.2765 21.6266 23.021 21.4086 22.6889C21.1906 22.3568 21.0229 21.9735 20.9055 21.5392C20.7965 21.1049 20.7588 20.6408 20.7924 20.1469C20.524 20.4875 20.2012 20.8537 19.8239 21.2454C19.455 21.6286 19.0651 22.0033 18.6543 22.3695C18.2518 22.7272 17.8661 23.0423 17.4972 23.3148C17.0696 23.6214 16.6377 23.8726 16.2017 24.0684C15.7741 24.2728 15.3339 24.375 14.8812 24.375Z" stroke="white" stroke-width="1.25" mask="url(#path-4-outside-1_82_35780)"/>
<path d="M41.5781 26L39.2812 14.1562H41.7031L42.6406 19.9375C42.6927 20.3333 42.7812 20.9375 42.9062 21.75C43.0312 22.625 43.125 23.2812 43.1875 23.7188H43.25C43.2604 23.6771 43.5156 22.4167 44.0156 19.9375L45.3906 14.1562H47.4062L48.7812 19.9375C48.9479 20.7604 49.1979 22.0208 49.5312 23.7188H49.6094C49.6823 23.1979 49.7917 22.4167 49.9375 21.375C50.0312 20.7292 50.099 20.25 50.1406 19.9375L51.0625 14.1562H53.3125L51.125 26H48.1875L46.8594 20.1406C46.6094 18.9115 46.4375 18 46.3438 17.4062H46.2812C46.1146 18.375 45.9427 19.2865 45.7656 20.1406L44.4688 26H41.5781ZM54.8906 26V17.0469H57.2188V26H54.8906ZM56.0781 15.5938C55.4844 15.5938 55.0677 15.3646 54.8281 14.9062C54.724 14.7188 54.6719 14.5208 54.6719 14.3125C54.6719 13.7604 54.9271 13.3802 55.4375 13.1719C55.6354 13.0885 55.849 13.0469 56.0781 13.0469C56.6823 13.0469 57.1042 13.276 57.3438 13.7344C57.4271 13.9115 57.4688 14.1042 57.4688 14.3125C57.4688 14.8333 57.2292 15.2083 56.75 15.4375C56.5417 15.5417 56.3177 15.5938 56.0781 15.5938ZM59.75 26V17.0469H61.6719L61.8281 18.2188H61.8906C62.8594 17.2917 63.8281 16.8229 64.7969 16.8125C66.6406 16.8333 67.5677 18.0365 67.5781 20.4219V26H65.2188V20.7031C65.2188 19.6719 64.9583 19.0677 64.4375 18.8906C64.2917 18.849 64.1302 18.8281 63.9531 18.8281C63.4531 18.8281 62.9427 19.0625 62.4219 19.5312C62.3177 19.625 62.2031 19.7292 62.0781 19.8438V26H59.75ZM70 26V17.0469H71.9219L72.0781 18.2188H72.1406C73.1094 17.2917 74.0781 16.8229 75.0469 16.8125C76.8906 16.8333 77.8177 18.0365 77.8281 20.4219V26H75.4688V20.7031C75.4688 19.6719 75.2083 19.0677 74.6875 18.8906C74.5417 18.849 74.3802 18.8281 74.2031 18.8281C73.7031 18.8281 73.1927 19.0625 72.6719 19.5312C72.5677 19.625 72.4531 19.7292 72.3281 19.8438V26H70ZM80.25 26V17.0469H82.5781V26H80.25ZM81.4375 15.5938C80.8438 15.5938 80.4271 15.3646 80.1875 14.9062C80.0833 14.7188 80.0312 14.5208 80.0312 14.3125C80.0312 13.7604 80.2865 13.3802 80.7969 13.1719C80.9948 13.0885 81.2083 13.0469 81.4375 13.0469C82.0417 13.0469 82.4635 13.276 82.7031 13.7344C82.7865 13.9115 82.8281 14.1042 82.8281 14.3125C82.8281 14.8333 82.5885 15.2083 82.1094 15.4375C81.901 15.5417 81.6771 15.5938 81.4375 15.5938ZM88.9219 26V14.1562H91.2969V24.0156H96.0938V26H88.9219ZM97.9531 26V17.0469H100.281V26H97.9531ZM99.1406 15.5938C98.5469 15.5938 98.1302 15.3646 97.8906 14.9062C97.7865 14.7188 97.7344 14.5208 97.7344 14.3125C97.7344 13.7604 97.9896 13.3802 98.5 13.1719C98.6979 13.0885 98.9115 13.0469 99.1406 13.0469C99.7448 13.0469 100.167 13.276 100.406 13.7344C100.49 13.9115 100.531 14.1042 100.531 14.3125C100.531 14.8333 100.292 15.2083 99.8125 15.4375C99.6042 15.5417 99.3802 15.5938 99.1406 15.5938ZM102.812 26V17.0469H104.734L104.891 18.2188H104.953C105.922 17.2917 106.891 16.8229 107.859 16.8125C109.703 16.8333 110.63 18.0365 110.641 20.4219V26H108.281V20.7031C108.281 19.6719 108.021 19.0677 107.5 18.8906C107.354 18.849 107.193 18.8281 107.016 18.8281C106.516 18.8281 106.005 19.0625 105.484 19.5312C105.38 19.625 105.266 19.7292 105.141 19.8438V26H102.812Z" fill="black"/>
</svg>
