<svg width="48" height="48" viewBox="0 0 48 48" fill="none" xmlns="http://www.w3.org/2000/svg">
<rect width="48" height="48" fill="white"/>
<circle cx="24" cy="24" r="21" fill="#FDEACF"/>
<circle cx="23.9999" cy="24.0004" r="18.9" fill="black" stroke="#D9E3E9" stroke-width="1.4"/>
<circle cx="24" cy="24.0002" r="16.8" stroke="#E8E3E1" stroke-width="0.42" stroke-linecap="round" stroke-linejoin="round" stroke-dasharray="2.8 2.8"/>
<mask id="path-4-outside-1_82_35773" maskUnits="userSpaceOnUse" x="13.2" y="16" width="22" height="16" fill="black">
<rect fill="white" x="13.2" y="16" width="22" height="16"/>
<path d="M15.8098 31C15.2329 31 14.8171 30.891 14.5622 30.673C14.3207 30.4686 14.2 30.1961 14.2 29.8555C14.2 29.583 14.267 29.2764 14.4012 28.9358C14.5353 28.5951 14.7097 28.2409 14.9244 27.873C15.3939 27.0555 15.9238 26.2039 16.5141 25.3182C17.1178 24.419 17.7081 23.5333 18.285 22.6613C18.5935 22.1844 18.9155 21.7007 19.2509 21.2102C19.5997 20.7061 19.9216 20.2224 20.2168 19.7591C20.5253 19.2822 20.7668 18.853 20.9412 18.4715C20.8071 18.4579 20.6729 18.4511 20.5388 18.4511C20.4046 18.4511 20.2637 18.4511 20.1162 18.4511C19.5393 18.4511 18.9423 18.4988 18.3252 18.5942C17.7081 18.6759 17.1312 18.8122 16.5946 19.0029C16.0714 19.1937 15.6488 19.4457 15.3269 19.7591C15.0049 20.0589 14.8439 20.4268 14.8439 20.8628C14.8439 21.1353 14.9177 21.3533 15.0652 21.5168C15.2262 21.6803 15.4006 21.8097 15.5885 21.9051C15.7897 22.0005 15.9373 22.0822 16.0312 22.1504C16.1385 22.2185 16.1921 22.273 16.1921 22.3139C16.1921 22.3411 16.1653 22.3547 16.1117 22.3547C16.0043 22.3547 15.8098 22.2866 15.5281 22.1504C15.2598 22.0005 15.0116 21.7961 14.7835 21.5372C14.5555 21.2783 14.4347 20.9786 14.4213 20.638C14.4213 20.6107 14.4079 20.5698 14.3811 20.5153C14.3542 20.4608 14.3408 20.4131 14.3408 20.3723C14.314 19.8545 14.4414 19.4185 14.7232 19.0642C15.0049 18.71 15.3872 18.4238 15.8702 18.2058C16.3665 17.9742 16.9166 17.8107 17.5203 17.7153C18.124 17.6063 18.7277 17.5518 19.3314 17.5518C20.0021 17.5518 20.6394 17.6063 21.2431 17.7153C21.2565 17.6608 21.2632 17.6131 21.2632 17.5723C21.2766 17.5314 21.2833 17.4905 21.2833 17.4496C21.2833 17.3815 21.2699 17.3202 21.2431 17.2657C21.2297 17.2384 21.2229 17.2044 21.2229 17.1635C21.2229 17.0545 21.2833 17 21.4041 17C21.4711 17 21.5382 17.0273 21.6053 17.0818C21.6858 17.1226 21.7462 17.2044 21.7864 17.327C21.7998 17.3543 21.8065 17.4019 21.8065 17.4701C21.8065 17.5791 21.7864 17.6949 21.7462 17.8175C21.9071 17.872 22.048 17.9265 22.1687 17.981C22.3029 18.0355 22.4303 18.09 22.5511 18.1445C22.6584 18.1854 22.7791 18.274 22.9133 18.4102C23.0475 18.5328 23.1145 18.635 23.1145 18.7168C23.1145 18.7849 23.0609 18.819 22.9535 18.819C22.8999 18.819 22.8328 18.8122 22.7523 18.7985C22.6718 18.7849 22.5779 18.7577 22.4706 18.7168C22.3364 18.6759 22.1956 18.6418 22.048 18.6146C21.9004 18.5737 21.7462 18.5397 21.5852 18.5124C21.3705 19.0983 21.0485 19.7932 20.6193 20.5971C20.19 21.3873 19.7271 22.1572 19.2308 22.9066C18.788 23.5878 18.3386 24.2827 17.8825 24.9912C17.4398 25.6998 17.0306 26.3946 16.655 27.0759C16.2928 27.7572 16.0043 28.4044 15.7897 29.0175C15.736 29.1946 15.6958 29.3513 15.6689 29.4876C15.6421 29.6375 15.6287 29.7669 15.6287 29.8759C15.6287 30.3119 15.8366 30.5299 16.2525 30.5299C16.6147 30.5299 17.091 30.3869 17.6813 30.1007C18.2715 29.8146 18.8752 29.4603 19.4924 29.038C20.6058 28.2477 21.659 27.3552 22.6517 26.3606C23.6579 25.3659 24.55 24.31 25.3281 23.1927C25.3147 23.0292 25.3012 22.8589 25.2878 22.6818C25.2878 22.491 25.2878 22.2934 25.2878 22.0891C25.2878 21.762 25.2945 21.4282 25.308 21.0876C25.3348 20.747 25.375 20.4472 25.4287 20.1883C25.4421 20.0793 25.5025 19.9363 25.6098 19.7591C25.7305 19.5684 25.8647 19.3981 26.0123 19.2482C26.1733 19.0983 26.3141 19.0234 26.4349 19.0234C26.5556 19.0234 26.6495 19.1051 26.7166 19.2686C26.7971 19.4321 26.8373 19.7182 26.8373 20.127C26.8373 20.5221 26.7971 20.9854 26.7166 21.5168C26.6495 22.0345 26.4952 22.5455 26.2537 23.0496C26.2403 23.8399 26.3141 24.6097 26.4751 25.3591C26.6495 26.0949 26.891 26.7557 27.1995 27.3416C27.5215 27.9275 27.8837 28.3908 28.2862 28.7314C28.6887 29.0584 29.118 29.2151 29.5741 29.2015C30.0839 29.1878 30.54 29.0039 30.9425 28.6496C31.3583 28.2818 31.7138 27.7981 32.009 27.1985C32.3175 26.5854 32.5523 25.9178 32.7133 25.1956C32.8743 24.4735 32.9548 23.7513 32.9548 23.0292C32.9548 22.3071 32.8609 21.6258 32.6731 20.9854C32.4986 20.3314 32.2169 19.7932 31.8279 19.3708C31.3986 18.9075 30.8485 18.6759 30.1778 18.6759C30.1241 18.6759 30.0637 18.6759 29.9967 18.6759C29.943 18.6759 29.8826 18.6827 29.8156 18.6964C29.4802 18.7372 29.185 18.8599 28.9301 19.0642C28.8765 19.0915 28.8295 19.1051 28.7893 19.1051C28.6283 19.1051 28.5478 19.037 28.5478 18.9007C28.5478 18.8462 28.5746 18.7985 28.6283 18.7577C29.3661 18.2399 30.0906 17.981 30.8016 17.981C31.3248 17.981 31.801 18.1241 32.2303 18.4102C32.7804 18.7645 33.1761 19.2891 33.4176 19.9839C33.6725 20.6788 33.7999 21.4418 33.7999 22.273C33.7999 23.1314 33.6792 24.017 33.4377 24.9299C33.1963 25.8292 32.8609 26.6603 32.4316 27.4234C32.0023 28.1864 31.4925 28.8063 30.9022 29.2832C30.3119 29.7465 29.6747 29.9781 28.9905 29.9781C28.4673 29.9781 27.9642 29.8282 27.4813 29.5285C27.0117 29.2423 26.6026 28.8336 26.2537 28.3022C25.9049 27.7708 25.6366 27.1577 25.4488 26.4628C25.2744 25.7679 25.214 25.0253 25.2677 24.235C24.8384 24.78 24.3219 25.3659 23.7182 25.9927C23.1279 26.6058 22.5041 27.2054 21.8468 27.7912C21.2028 28.3635 20.5857 28.8676 19.9954 29.3036C19.3112 29.7942 18.6203 30.1961 17.9227 30.5095C17.2386 30.8365 16.5342 31 15.8098 31Z"/>
</mask>
<path d="M15.8098 31C15.2329 31 14.8171 30.891 14.5622 30.673C14.3207 30.4686 14.2 30.1961 14.2 29.8555C14.2 29.583 14.267 29.2764 14.4012 28.9358C14.5353 28.5951 14.7097 28.2409 14.9244 27.873C15.3939 27.0555 15.9238 26.2039 16.5141 25.3182C17.1178 24.419 17.7081 23.5333 18.285 22.6613C18.5935 22.1844 18.9155 21.7007 19.2509 21.2102C19.5997 20.7061 19.9216 20.2224 20.2168 19.7591C20.5253 19.2822 20.7668 18.853 20.9412 18.4715C20.8071 18.4579 20.6729 18.4511 20.5388 18.4511C20.4046 18.4511 20.2637 18.4511 20.1162 18.4511C19.5393 18.4511 18.9423 18.4988 18.3252 18.5942C17.7081 18.6759 17.1312 18.8122 16.5946 19.0029C16.0714 19.1937 15.6488 19.4457 15.3269 19.7591C15.0049 20.0589 14.8439 20.4268 14.8439 20.8628C14.8439 21.1353 14.9177 21.3533 15.0652 21.5168C15.2262 21.6803 15.4006 21.8097 15.5885 21.9051C15.7897 22.0005 15.9373 22.0822 16.0312 22.1504C16.1385 22.2185 16.1921 22.273 16.1921 22.3139C16.1921 22.3411 16.1653 22.3547 16.1117 22.3547C16.0043 22.3547 15.8098 22.2866 15.5281 22.1504C15.2598 22.0005 15.0116 21.7961 14.7835 21.5372C14.5555 21.2783 14.4347 20.9786 14.4213 20.638C14.4213 20.6107 14.4079 20.5698 14.3811 20.5153C14.3542 20.4608 14.3408 20.4131 14.3408 20.3723C14.314 19.8545 14.4414 19.4185 14.7232 19.0642C15.0049 18.71 15.3872 18.4238 15.8702 18.2058C16.3665 17.9742 16.9166 17.8107 17.5203 17.7153C18.124 17.6063 18.7277 17.5518 19.3314 17.5518C20.0021 17.5518 20.6394 17.6063 21.2431 17.7153C21.2565 17.6608 21.2632 17.6131 21.2632 17.5723C21.2766 17.5314 21.2833 17.4905 21.2833 17.4496C21.2833 17.3815 21.2699 17.3202 21.2431 17.2657C21.2297 17.2384 21.2229 17.2044 21.2229 17.1635C21.2229 17.0545 21.2833 17 21.4041 17C21.4711 17 21.5382 17.0273 21.6053 17.0818C21.6858 17.1226 21.7462 17.2044 21.7864 17.327C21.7998 17.3543 21.8065 17.4019 21.8065 17.4701C21.8065 17.5791 21.7864 17.6949 21.7462 17.8175C21.9071 17.872 22.048 17.9265 22.1687 17.981C22.3029 18.0355 22.4303 18.09 22.5511 18.1445C22.6584 18.1854 22.7791 18.274 22.9133 18.4102C23.0475 18.5328 23.1145 18.635 23.1145 18.7168C23.1145 18.7849 23.0609 18.819 22.9535 18.819C22.8999 18.819 22.8328 18.8122 22.7523 18.7985C22.6718 18.7849 22.5779 18.7577 22.4706 18.7168C22.3364 18.6759 22.1956 18.6418 22.048 18.6146C21.9004 18.5737 21.7462 18.5397 21.5852 18.5124C21.3705 19.0983 21.0485 19.7932 20.6193 20.5971C20.19 21.3873 19.7271 22.1572 19.2308 22.9066C18.788 23.5878 18.3386 24.2827 17.8825 24.9912C17.4398 25.6998 17.0306 26.3946 16.655 27.0759C16.2928 27.7572 16.0043 28.4044 15.7897 29.0175C15.736 29.1946 15.6958 29.3513 15.6689 29.4876C15.6421 29.6375 15.6287 29.7669 15.6287 29.8759C15.6287 30.3119 15.8366 30.5299 16.2525 30.5299C16.6147 30.5299 17.091 30.3869 17.6813 30.1007C18.2715 29.8146 18.8752 29.4603 19.4924 29.038C20.6058 28.2477 21.659 27.3552 22.6517 26.3606C23.6579 25.3659 24.55 24.31 25.3281 23.1927C25.3147 23.0292 25.3012 22.8589 25.2878 22.6818C25.2878 22.491 25.2878 22.2934 25.2878 22.0891C25.2878 21.762 25.2945 21.4282 25.308 21.0876C25.3348 20.747 25.375 20.4472 25.4287 20.1883C25.4421 20.0793 25.5025 19.9363 25.6098 19.7591C25.7305 19.5684 25.8647 19.3981 26.0123 19.2482C26.1733 19.0983 26.3141 19.0234 26.4349 19.0234C26.5556 19.0234 26.6495 19.1051 26.7166 19.2686C26.7971 19.4321 26.8373 19.7182 26.8373 20.127C26.8373 20.5221 26.7971 20.9854 26.7166 21.5168C26.6495 22.0345 26.4952 22.5455 26.2537 23.0496C26.2403 23.8399 26.3141 24.6097 26.4751 25.3591C26.6495 26.0949 26.891 26.7557 27.1995 27.3416C27.5215 27.9275 27.8837 28.3908 28.2862 28.7314C28.6887 29.0584 29.118 29.2151 29.5741 29.2015C30.0839 29.1878 30.54 29.0039 30.9425 28.6496C31.3583 28.2818 31.7138 27.7981 32.009 27.1985C32.3175 26.5854 32.5523 25.9178 32.7133 25.1956C32.8743 24.4735 32.9548 23.7513 32.9548 23.0292C32.9548 22.3071 32.8609 21.6258 32.6731 20.9854C32.4986 20.3314 32.2169 19.7932 31.8279 19.3708C31.3986 18.9075 30.8485 18.6759 30.1778 18.6759C30.1241 18.6759 30.0637 18.6759 29.9967 18.6759C29.943 18.6759 29.8826 18.6827 29.8156 18.6964C29.4802 18.7372 29.185 18.8599 28.9301 19.0642C28.8765 19.0915 28.8295 19.1051 28.7893 19.1051C28.6283 19.1051 28.5478 19.037 28.5478 18.9007C28.5478 18.8462 28.5746 18.7985 28.6283 18.7577C29.3661 18.2399 30.0906 17.981 30.8016 17.981C31.3248 17.981 31.801 18.1241 32.2303 18.4102C32.7804 18.7645 33.1761 19.2891 33.4176 19.9839C33.6725 20.6788 33.7999 21.4418 33.7999 22.273C33.7999 23.1314 33.6792 24.017 33.4377 24.9299C33.1963 25.8292 32.8609 26.6603 32.4316 27.4234C32.0023 28.1864 31.4925 28.8063 30.9022 29.2832C30.3119 29.7465 29.6747 29.9781 28.9905 29.9781C28.4673 29.9781 27.9642 29.8282 27.4813 29.5285C27.0117 29.2423 26.6026 28.8336 26.2537 28.3022C25.9049 27.7708 25.6366 27.1577 25.4488 26.4628C25.2744 25.7679 25.214 25.0253 25.2677 24.235C24.8384 24.78 24.3219 25.3659 23.7182 25.9927C23.1279 26.6058 22.5041 27.2054 21.8468 27.7912C21.2028 28.3635 20.5857 28.8676 19.9954 29.3036C19.3112 29.7942 18.6203 30.1961 17.9227 30.5095C17.2386 30.8365 16.5342 31 15.8098 31Z" fill="white"/>
<path d="M15.8098 31C15.2329 31 14.8171 30.891 14.5622 30.673C14.3207 30.4686 14.2 30.1961 14.2 29.8555C14.2 29.583 14.267 29.2764 14.4012 28.9358C14.5353 28.5951 14.7097 28.2409 14.9244 27.873C15.3939 27.0555 15.9238 26.2039 16.5141 25.3182C17.1178 24.419 17.7081 23.5333 18.285 22.6613C18.5935 22.1844 18.9155 21.7007 19.2509 21.2102C19.5997 20.7061 19.9216 20.2224 20.2168 19.7591C20.5253 19.2822 20.7668 18.853 20.9412 18.4715C20.8071 18.4579 20.6729 18.4511 20.5388 18.4511C20.4046 18.4511 20.2637 18.4511 20.1162 18.4511C19.5393 18.4511 18.9423 18.4988 18.3252 18.5942C17.7081 18.6759 17.1312 18.8122 16.5946 19.0029C16.0714 19.1937 15.6488 19.4457 15.3269 19.7591C15.0049 20.0589 14.8439 20.4268 14.8439 20.8628C14.8439 21.1353 14.9177 21.3533 15.0652 21.5168C15.2262 21.6803 15.4006 21.8097 15.5885 21.9051C15.7897 22.0005 15.9373 22.0822 16.0312 22.1504C16.1385 22.2185 16.1921 22.273 16.1921 22.3139C16.1921 22.3411 16.1653 22.3547 16.1117 22.3547C16.0043 22.3547 15.8098 22.2866 15.5281 22.1504C15.2598 22.0005 15.0116 21.7961 14.7835 21.5372C14.5555 21.2783 14.4347 20.9786 14.4213 20.638C14.4213 20.6107 14.4079 20.5698 14.3811 20.5153C14.3542 20.4608 14.3408 20.4131 14.3408 20.3723C14.314 19.8545 14.4414 19.4185 14.7232 19.0642C15.0049 18.71 15.3872 18.4238 15.8702 18.2058C16.3665 17.9742 16.9166 17.8107 17.5203 17.7153C18.124 17.6063 18.7277 17.5518 19.3314 17.5518C20.0021 17.5518 20.6394 17.6063 21.2431 17.7153C21.2565 17.6608 21.2632 17.6131 21.2632 17.5723C21.2766 17.5314 21.2833 17.4905 21.2833 17.4496C21.2833 17.3815 21.2699 17.3202 21.2431 17.2657C21.2297 17.2384 21.2229 17.2044 21.2229 17.1635C21.2229 17.0545 21.2833 17 21.4041 17C21.4711 17 21.5382 17.0273 21.6053 17.0818C21.6858 17.1226 21.7462 17.2044 21.7864 17.327C21.7998 17.3543 21.8065 17.4019 21.8065 17.4701C21.8065 17.5791 21.7864 17.6949 21.7462 17.8175C21.9071 17.872 22.048 17.9265 22.1687 17.981C22.3029 18.0355 22.4303 18.09 22.5511 18.1445C22.6584 18.1854 22.7791 18.274 22.9133 18.4102C23.0475 18.5328 23.1145 18.635 23.1145 18.7168C23.1145 18.7849 23.0609 18.819 22.9535 18.819C22.8999 18.819 22.8328 18.8122 22.7523 18.7985C22.6718 18.7849 22.5779 18.7577 22.4706 18.7168C22.3364 18.6759 22.1956 18.6418 22.048 18.6146C21.9004 18.5737 21.7462 18.5397 21.5852 18.5124C21.3705 19.0983 21.0485 19.7932 20.6193 20.5971C20.19 21.3873 19.7271 22.1572 19.2308 22.9066C18.788 23.5878 18.3386 24.2827 17.8825 24.9912C17.4398 25.6998 17.0306 26.3946 16.655 27.0759C16.2928 27.7572 16.0043 28.4044 15.7897 29.0175C15.736 29.1946 15.6958 29.3513 15.6689 29.4876C15.6421 29.6375 15.6287 29.7669 15.6287 29.8759C15.6287 30.3119 15.8366 30.5299 16.2525 30.5299C16.6147 30.5299 17.091 30.3869 17.6813 30.1007C18.2715 29.8146 18.8752 29.4603 19.4924 29.038C20.6058 28.2477 21.659 27.3552 22.6517 26.3606C23.6579 25.3659 24.55 24.31 25.3281 23.1927C25.3147 23.0292 25.3012 22.8589 25.2878 22.6818C25.2878 22.491 25.2878 22.2934 25.2878 22.0891C25.2878 21.762 25.2945 21.4282 25.308 21.0876C25.3348 20.747 25.375 20.4472 25.4287 20.1883C25.4421 20.0793 25.5025 19.9363 25.6098 19.7591C25.7305 19.5684 25.8647 19.3981 26.0123 19.2482C26.1733 19.0983 26.3141 19.0234 26.4349 19.0234C26.5556 19.0234 26.6495 19.1051 26.7166 19.2686C26.7971 19.4321 26.8373 19.7182 26.8373 20.127C26.8373 20.5221 26.7971 20.9854 26.7166 21.5168C26.6495 22.0345 26.4952 22.5455 26.2537 23.0496C26.2403 23.8399 26.3141 24.6097 26.4751 25.3591C26.6495 26.0949 26.891 26.7557 27.1995 27.3416C27.5215 27.9275 27.8837 28.3908 28.2862 28.7314C28.6887 29.0584 29.118 29.2151 29.5741 29.2015C30.0839 29.1878 30.54 29.0039 30.9425 28.6496C31.3583 28.2818 31.7138 27.7981 32.009 27.1985C32.3175 26.5854 32.5523 25.9178 32.7133 25.1956C32.8743 24.4735 32.9548 23.7513 32.9548 23.0292C32.9548 22.3071 32.8609 21.6258 32.6731 20.9854C32.4986 20.3314 32.2169 19.7932 31.8279 19.3708C31.3986 18.9075 30.8485 18.6759 30.1778 18.6759C30.1241 18.6759 30.0637 18.6759 29.9967 18.6759C29.943 18.6759 29.8826 18.6827 29.8156 18.6964C29.4802 18.7372 29.185 18.8599 28.9301 19.0642C28.8765 19.0915 28.8295 19.1051 28.7893 19.1051C28.6283 19.1051 28.5478 19.037 28.5478 18.9007C28.5478 18.8462 28.5746 18.7985 28.6283 18.7577C29.3661 18.2399 30.0906 17.981 30.8016 17.981C31.3248 17.981 31.801 18.1241 32.2303 18.4102C32.7804 18.7645 33.1761 19.2891 33.4176 19.9839C33.6725 20.6788 33.7999 21.4418 33.7999 22.273C33.7999 23.1314 33.6792 24.017 33.4377 24.9299C33.1963 25.8292 32.8609 26.6603 32.4316 27.4234C32.0023 28.1864 31.4925 28.8063 30.9022 29.2832C30.3119 29.7465 29.6747 29.9781 28.9905 29.9781C28.4673 29.9781 27.9642 29.8282 27.4813 29.5285C27.0117 29.2423 26.6026 28.8336 26.2537 28.3022C25.9049 27.7708 25.6366 27.1577 25.4488 26.4628C25.2744 25.7679 25.214 25.0253 25.2677 24.235C24.8384 24.78 24.3219 25.3659 23.7182 25.9927C23.1279 26.6058 22.5041 27.2054 21.8468 27.7912C21.2028 28.3635 20.5857 28.8676 19.9954 29.3036C19.3112 29.7942 18.6203 30.1961 17.9227 30.5095C17.2386 30.8365 16.5342 31 15.8098 31Z" stroke="white" stroke-width="2" mask="url(#path-4-outside-1_82_35773)"/>
</svg>
